<svg xmlns="http://www.w3.org/2000/svg" 
id="ba87bbd2-dcfd-4c46-a5df-0805836493e8" 
data-name="Layer 1" 
width="725.76" height="682.89" viewBox="0 0 865.76 552.89">
<polygon points="378.21 96.16 381.46 93.81 416.56 91.24 418.1 178.12 428.88 256.04 397.73 265.14 378.21 96.16" fill="#ccc"/>
<path d="M671.54,472.34l-.09,21.75L394.84,646.38l-16.44,3.26L82.13,475.17l-2.7,19.28a15.77,15.77,0,0,0,8.07,14.36l287,161a17.78,17.78,0,0,0,17.53-.1L671.54,509l3.18-2.07a17.42,17.42,0,0,0,8-15.65C682.29,484.86,679.83,477.18,671.54,472.34Z" fill="#ccc"/><path d="M671.54,472.34l-.09,21.75-276.61,148-16.44,3.26L82.13,475.17l-2.7,19.28a15.77,15.77,0,0,0,8.07,14.36l287,161a17.78,17.78,0,0,0,17.53-.1L671.54,509l3.18-2.07a17.42,17.42,0,0,0,8-15.65C682.29,484.86,679.83,477.18,671.54,472.34Z" opacity="0.2"/><path d="M89.69,487.28l287.37,158a12.63,12.63,0,0,0,12.91,0l281.49-151a12.87,12.87,0,0,0,.08-22.06L380.07,299.43a12.65,12.65,0,0,0-12.88-.1L89.83,460.4A15.59,15.59,0,0,0,89.69,487.28Z" fill="#ccc"/><path d="M351.8,482,350,510.62s5.85,3.08,15.7,0a6,6,0,0,1,5.85,2.77s7.09,8.6,20.79,7.46a8.44,8.44,0,0,0,7.68-6.71,12.43,12.43,0,0,0-2-9.07s-2.71-4.88-12.05-6.16a12.39,12.39,0,0,1-10.69-10.59,35.19,35.19,0,0,1-.19-6.34Z" fill="#d6a100"/><path d="M351.18,472.44l6.47-72.06-3.23-125.62s53.73-8.93,72.2-20.94c0,0,17.68,76.05,17.66,136a11.55,11.55,0,0,1-1.13,5.41L409.69,459.5l-22.17-10.16,23.31-61.48a11.72,11.72,0,0,0,.38-7.1L399.83,337s-19.38,124.66-24.77,135.49C375.06,472.44,368.12,478.59,351.18,472.44Z" fill="#660000"/><path d="M363.65,472.34s22.63-121.84,5.7-156.94" fill="none" stroke="#3f3d56" stroke-miterlimit="10"/><path d="M392,451.41l26.34-64a7.35,7.35,0,0,0,.39-4.32l-13.13-61.21" fill="none" stroke="#3f3d56" stroke-miterlimit="10"/><path d="M388.13,456s-11.91,20.49-12.49,23.26c0,0-4.14,4.93,11.26,9.54a8.52,8.52,0,0,1,7.08,4.62s5.63,14.69,20.81,13.07a7.52,7.52,0,0,0,6.78-8.2,13.09,13.09,0,0,0-4.8-8.87s-1.14-2.08-5.49-4.91a11.43,11.43,0,0,1-5.19-9,25,25,0,0,1,1.44-10.36Z" fill="#d6a100"/><path d="M316.59,340.34s37,18.72,59.05,14.37c0,0,33.33-82.11,32.92-163.81,0,0-16-45.16-33.67-66.1l3.69-7H372l1.23-18.06s-40.23,25.86-39,38.59l16.93,117.83Z" fill="#d6a100"/><path d="M354.74,287.35a30.06,30.06,0,0,0,28.77-11.47,278.55,278.55,0,0,1-14.22-43.54,126,126,0,0,1-2.48-41.88l4.39-41.85s5.64-34.08-23.05-30c0,0-15.54,9.24-16.16,24C332,142.66,323.16,224.36,354.74,287.35Z" fill="#d6a100"/><path d="M354.74,287.35a30.06,30.06,0,0,0,28.77-11.47,278.55,278.55,0,0,1-14.22-43.54,126,126,0,0,1-2.48-41.88l4.39-41.85s5.64-34.08-23.05-30c0,0-15.54,9.24-16.16,24C332,142.66,323.16,224.36,354.74,287.35Z" opacity="0.2"/><path d="M360.12,287.74s15.67,41.05,45.23,22.62a2,2,0,0,0,.95-1.73h0a2,2,0,0,0-2.08-2,26.2,26.2,0,0,1-5.37-.41c-7-1.39-6.94-11.45.11-12.67H399a2.78,2.78,0,0,0,.95-.25h0a1.68,1.68,0,0,0-.59-3.08c-6.65-1.18-18.59-4-20.79-9.23C378.58,281,372,287.49,360.12,287.74Z" fill="#f9b499"/><path d="M365.49,298l-18.56-.39a.82.82,0,0,0-.74,1.2l3.86,7.21s-7.18,2.05-4.51,9.34c0,0,1.23,6.36,12.52,3.18l22.77-5.72A45.66,45.66,0,0,1,365.49,298Z" fill="#ccc"/><path d="M451.25,321.87s16-7.39,23.82-20.12c0,0-36.95-73.49-34.08-122.35l2.82-58.68a22.11,22.11,0,0,0-7.9-18.06c-5.18-4.31-12.1-9.23-18.83-11.42l8,10.78-2.77,4.31,3.08,3.38s1.43,33.42-9.19,65.59a22.29,22.29,0,0,0-1.08,8.23C416.1,201.84,421.69,271.77,451.25,321.87Z" fill="#d6a100"/><path d="M407.53,188.1S398.09,118,381.46,93.8l-8.21,6L372,117.82h6.56l-3.69,7a329.85,329.85,0,0,1,33.2,64.81" fill="#d6a100"/><path d="M407.53,188.1S398.09,118,381.46,93.8l-8.21,6L372,117.82h6.56l-3.69,7a329.85,329.85,0,0,1,33.2,64.81" fill="#fff" opacity="0.2"/><path d="M415.08,179s-.16-73.69-1.39-83.95l3.39-3.8,8,10.78-2.77,4.31,3.08,3.38s6.48,10-10.31,70.31" fill="#d6a100"/><path d="M415.08,179s-.16-73.69-1.39-83.95l3.39-3.8,8,10.78-2.77,4.31,3.08,3.38s6.48,10-10.31,70.31" fill="#fff" opacity="0.2"/><path d="M408.56,93.8v9c-5.13,7.8-20.06,4.69-20.06,4.69-1.34-3.42-5.29-11-5.29-11l.34-17.73h6.5Z" fill="#f9b499"/><path d="M112.14,122.34s45.16,4.51,71.85-5.75c0,0,9,46.8,32,63.43,0,0-34.9,9.24-51.94,4.72C164.07,184.74,127.74,154.36,112.14,122.34Z" fill="#660000"/><polygon points="190.14 490.19 237.36 481.98 274.31 527.14 220.53 534.12 190.14 490.19" fill="none"/><polygon points="291.55 563.27 354.77 605.97 401.99 574.36 338.35 537.82 291.55 563.27" fill="#660000"/><polygon points="291.55 570.46 291.55 563.27 354.77 605.97 401.99 574.36 401.99 581.33 356.01 612.54 291.55 570.46" fill="#3f3d56"/><polygon points="291.55 570.46 291.55 563.27 354.77 605.97 401.99 574.36 401.99 581.33 356.01 612.54 291.55 570.46" fill="#231f20" opacity="0.2"/><polygon points="413.9 451.41 462.75 451.41 478.35 398.64 441.38 398.64 413.9 451.41" fill="#fff"/><path d="M660.77,203s79.86-27.9,113.18-58.76c0,0-27.93,51.1-52.91,62.29C721,206.55,691.64,215.24,660.77,203Z" fill="#ccc"/><path d="M774,144.26c9-14.94-23.52-17.15-23.52-17.15s-4.32,32.15-17.1,44.24C733.33,171.35,761.21,155.53,774,144.26Z" fill="#ccc"/><path d="M774,144.26c9-14.94-23.52-17.15-23.52-17.15s-4.32,32.15-17.1,44.24C733.33,171.35,761.21,155.53,774,144.26Z" fill="#231f20" opacity="0.2"/><path d="M386,534.12s150.91-60.3,216.62-192.28c26-52.32,4.54-115.74-48.35-140.63C528.21,188.94,491.8,180.35,441,179.4" fill="none" stroke="#660000" stroke-miterlimit="10"/><path d="M330.85,186s-115.78,7-124.07,68.32c-2.28,16.84,4.58,33.56,17.24,44.9,26.67,23.86,98.79,60.86,284.3,44.83,0,0,278.24-33.77,252.84-179" fill="none" stroke="#660000" stroke-miterlimit="10"/><circle cx="258.34" cy="321.41" r="8.46" fill="#660000"/><circle cx="316.59" cy="283.12" r="4.11" fill="#660000"/><circle cx="484.57" cy="491.22" r="4.11" fill="#660000"/><circle cx="488.68" cy="463.38" r="4.11" fill="#660000"/><circle cx="600.49" cy="389.31" r="4.11" fill="#660000"/><circle cx="579.96" cy="240.02" r="4.11" fill="#d6a100"/><path d="M348.72,472.17v8.4a2,2,0,0,0,1.42,1.95c3,.9,10.87,2.38,26.73-.25a2,2,0,0,0,1.71-2v-7.7a2,2,0,0,0-2.72-1.94c-4,1.47-12.3,3.26-24.5-.4A2.05,2.05,0,0,0,348.72,472.17Z" fill="#3f3d56"/><path d="M388.83,445.87h0A2.74,2.74,0,0,0,385,447l-1.59,3.22a5,5,0,0,0,2.12,6.59l18.94,10.07a5,5,0,0,0,6.83-2.28l2.42-5.16a2.74,2.74,0,0,0-1.42-3.69Z" fill="#3f3d56"/><path d="M400.76,291.76s29.56-19.37,34.28-17.52c0,0,19.19,6.65,9.49,23.6a5.48,5.48,0,0,1-3.51,2.59l-34.72,8.2s.09-2.74-3.6-2c0,0-8.05.43-9-5.74,0,0-1.37-5.61,5.31-7.33A1.92,1.92,0,0,0,400.76,291.76Z" fill="#ccc"/><circle cx="438.59" cy="290.37" r="7.25" opacity="0.2"/><path d="M216,197.47s27.71,10.38,42.49-3.43c0,0,12.93,36.68,25.25,45.92,0,0-18.89,3.37-33.87,0C249.88,240,224.63,223.33,216,197.47Z" fill="#ccc"/><path d="M514.07,203s20.94,11.53,25.45,24.54c0,0,13.14-24.75,15.6-43.23,0,0-12.72-17.65-30.79-23.81C524.33,160.52,526.8,183.53,514.07,203Z" fill="#660000"/><path d="M512.43,315.2s24.22-15.19,37.36-55.83c0,0,31.2,13.55,48,7.8,0,0-18.88,39.21-39.41,51.42C558.41,318.59,534.19,326.7,512.43,315.2Z" fill="#ccc"/><circle cx="584.07" cy="222.88" r="8.46" fill="#660000"/><path d="M408.56,98.39V95.05S398.11,90.76,390.44,87C390.44,87,395.35,94.54,408.56,98.39Z" fill="#f4a48e"/><path d="M385.32,80.87c1.6,7.19,20.57,13.64,20.57,13.64S424,102.1,424.51,60.18l-12.67-14s-28.12.63-28.63,2.47-1,20.43-1,20.43Z" fill="#f9b499"/><path d="M381.26,61.37s2.46-1.85,9.85,7.7l.83-5.55a.74.74,0,0,1,1.2-.46,53.49,53.49,0,0,0,6.28,4.64,2.24,2.24,0,0,0,3.39-1.93V61.23l1.07-.56a3.46,3.46,0,0,0,1.84-3.61L405.41,55a3.18,3.18,0,0,1,3.15-3.66h0l3.13,4.52a4.35,4.35,0,0,0,4.41,1.69A4.42,4.42,0,0,1,420,58.83,4.33,4.33,0,0,0,423,60c1.5,0,.25,1.09,1.47,3.65,0,0,15.45-19.36-6.92-33.32,0,0-25.25-20.32-44.34,2.88,0,0-13.07,20.19,2.79,37.36Z" fill="#660000"/><path d="M379.19,75.84s1.25,7.7,4,8.73c0,0,2.43-.37,2.8-9.42C386,75.15,381.92,78,379.19,75.84Z" fill="#660000"/>
<ellipse cx="382.18" cy="69.07" rx="6.26" ry="7.7" fill="#f9b499"/></svg>