<svg id="a800b39d-f938-45af-8987-a3a3af40e219" data-name="Layer 1" xmlns="http://www.w3.org/2000/svg" width="365.76" height="482.89" viewBox="0 0 765.76 282.89"><rect x="174.44" y="607.12" width="13.94" height="58.15" fill="#ccc"/><rect x="680.87" y="607.12" width="13.94" height="58.15" fill="#ccc"/><path d="M348.45,246.65S362.24,284,377.7,281.51C377.7,281.51,380,257.78,348.45,246.65Z" fill="#facc01"/><circle cx="433.14" cy="120.97" r="103.35" fill="#ccc" opacity="0.49"/><path d="M490.07,282l-6.69-8.08c-.27,3.08-2.45,9.16-3.82,12.74a24.78,24.78,0,0,0-1.62,7c-1.5,20.85,11.74,41.63,11.74,41.63-54.07,15.36-105.65-1-105.65-1a204.25,204.25,0,0,0,8.44-41.3l-10.64-21.28-4.13,9.75c-.59-26-29.25-34.86-29.25-34.86s45-49.4,121.42-29.66a56.84,56.84,0,0,1,18.69,8.75c8.71,6.19,22.55,16.42,31.85,25.34C520.41,251.08,523,276.88,490.07,282Z" fill="#facc01"/><path d="M399.67,217.1S408.61,231,428.16,233s30.8-2.65,41.07-15.9C469.23,217.1,442.4,205.51,399.67,217.1Z" fill="#fff" opacity="0.2"/><path d="M433.06,204.19A83.22,83.22,0,1,1,516.28,121,83.31,83.31,0,0,1,433.06,204.19Zm0-165.06A81.84,81.84,0,1,0,514.9,121,81.93,81.93,0,0,0,433.06,39.13Z" fill="#fff"/><path d="M417.59,78.83s16.33-10.62,43.25-15.13A7.16,7.16,0,0,1,467,65.62c9.84,9.58,41.62,47.75,19.7,124.59,0,0,13.89-2.65,14.19,4.44,0,0,1.18,4.13-5.32,5.61,0,0,7.38,3.55-1.77,7.09,0,0-19.9,5.79-46.39.77a119.67,119.67,0,0,0-29.63-1.92,149.77,149.77,0,0,0-20.16,2.33s-31.47,8.57-32.35-5.61c0,0,0-7.09,16.25-6.8,0,0-19.9-55.38,2.42-113.42a6,6,0,0,1,2.93-3.19C393.05,76.49,411,68.86,417.59,78.83Z" fill="#77060c"/><polygon points="423.2 181.94 420.54 215.33 450.68 215.33 445.06 181.94 423.2 181.94" fill="#f9b499"/><path d="M407.24,219.47l19.21-5.91h17.14l19.2,4.72S442.11,236.31,407.24,219.47Z" fill="#f9b499"/><path d="M490.07,282c12.61-28.57,30.34-30.93,30.34-30.93l-7.2-6.45c-22.15,6.45-26.5,33.32-26.5,33.32Z" fill="#facc01"/><path d="M356,239.77s25.64,11.27,25.81,32l-4.13,9.75s1.17-23.47-29.25-34.86C348.45,246.65,350.18,244.2,356,239.77Z" fill="#facc01"/><path d="M366.56,257.21s22.66-5.54,26.6-10.27c0,0,2.29,12.06-8.11,31.25l-3.22-6.43-4.13,9.75A34.49,34.49,0,0,0,366.56,257.21Z" opacity="0.2"/><path d="M485,223.39s14.07,15.86,11.51,46.73c0,0,8.95-15.09,23.93-19C520.41,251.08,499,231.65,485,223.39Z" opacity="0.2"/><path d="M302.14,304.88s41.58-48.48,52.51-55.57c0,0,10.18,3.94,18.53,16.15,0,0-26.8,22.55-47.19,45Z" fill="#f9b499"/><path d="M321.47,416.83S288,401.79,270.78,352c0,0,8-26.66,27.49-38,0,0,67.5,16.21,90.22,20.87,0,0,49.3,15,101.19.51,0,0,80.25-20.48,89.55-21.38,0,0,31.36,43.39,27.92,51.46,0,0-18.47,29.12-64,44.16,0,0,10.36-46.47-28.35-66.26,0,0,30.73-9.46,44.32-15.37,0,0-79.94,54.66-170.48,28.37,0,0-40.18-6.52-72.09-30.14,0,0,35.35,15,48.6,26.39C365.14,352.52,324.68,367.68,321.47,416.83Z" fill="#77060c"/><path d="M341.55,402.56s-10,12.39-20.08,14.27c0,0,1.47-49.34,43.67-64.31l-9.51-6.74s42.16,17.17,80.86,17.08c0,0,41.34.76,77.7-13.65l.6-5.94s16.6,6.36,25.24,27.64a71.49,71.49,0,0,1,3.11,38.62s-13.72-12.77-16.44-19.81l8.76-3.2s-.86-22.46-18.87-36.77l-92.8,49.95-66.18-39.3s-17.29,15.81-21.42,39.3Z" fill="#77060c"/><path d="M341.55,402.56s-10,12.39-20.08,14.27c0,0,1.47-49.34,43.67-64.31l-9.51-6.74s42.16,17.17,80.86,17.08c0,0,41.34.76,77.7-13.65l.6-5.94s16.6,6.36,25.24,27.64a71.49,71.49,0,0,1,3.11,38.62s-13.72-12.77-16.44-19.81l8.76-3.2s-.86-22.46-18.87-36.77l-92.8,49.95-66.18-39.3s-17.29,15.81-21.42,39.3Z" opacity="0.2"/><path d="M471.1,407.86s39.06-10.93,55.6-18.14l8.76-3.2s-1.22-24.17-18.87-36.77l-93.72,50.17,16.22,9.83s1.84.39,8.19-4c0,0,5.88-6.62,15.77-.87Z" fill="#f9b499"/><path d="M435.92,401.47c-2.95.06-7.14-.49-8.93-3.75l-4.54,2.19,16.64,11.31s2.63,0,8.19-4.48c0,0,5.78-7.31,15.77-1l6.81,2.82,4.36-1.62s-18.06-12.66-33.62-6.48A13.33,13.33,0,0,1,435.92,401.47Z" fill="#f7a78d"/><path d="M367.71,413.37,350.39,425a1.12,1.12,0,0,0,.1,1.92l11.19,6a1.06,1.06,0,0,0,.76.11l41.1-8.77S380.38,418.31,367.71,413.37Z" fill="#f9b499"/><path d="M390.11,427.1c-5.36-1.67-11-3.6-16.75-5.83-3.76-1.45-7.37-2.94-10.82-4.44l5.17-3.46s24.79,8.4,35.83,10.86Z" fill="#f7a78d"/><path d="M311,655.3s1-115.88,9.57-141.58c0,0,154.68-15.11,222.19,0,0,0,9.57,34.77,12.09,141.58,0,0,5-23,8.4-30.18a3.07,3.07,0,0,1,2.44-1.74c6.36-.73,30.33-3.2,33.91.38,0,0,2.37,8.67,2,11.62,0,0-14.36,4.74-22.44,4.69a3.92,3.92,0,0,0-3.4,1.94l-13,22.33H302.35l-12.3-21.58a5.3,5.3,0,0,0-3.82-2.61c-5.18-.74-16.92-2.61-22.13-4.87,0,0-.22-10.63,3.85-12.67,0,0,23.8-1.37,31.78.06a4,4,0,0,1,3,2.54A236.67,236.67,0,0,1,311,655.3Z" fill="#d1d3d4"/><path d="M367.59,502.35s1.91-35.59,10.82-41.29a3.64,3.64,0,0,1,1.67-.52c7.75-.67,73.56-5.9,104.6.07A6.09,6.09,0,0,1,490,465.7s6.58,25.56,8.15,34.11Z" fill="#d1d3d4"/><polygon points="588.88 600.38 584.64 558.91 622.14 557.89 618.41 600.38 588.88 600.38" fill="#77060c"/><path d="M613.83,567.56s-23-.52-28.46-1.53l-.73-7.12,37.5-1-3.73,42.49h-5.09Z" opacity="0.2"/><polygon points="576.94 495.36 588.96 552.1 594.67 552.1 583.24 495.36 576.94 495.36" fill="#ccc"/><polygon points="575.07 496.12 576.94 495.36 588.96 552.1 587.08 552.1 575.07 496.12" fill="#ccc"/><polygon points="575.07 496.12 576.94 495.36 588.96 552.1 587.08 552.1 575.07 496.12" opacity="0.2"/><polygon points="596.05 551.99 591.91 518.48 597.92 517.98 601.61 551.83 596.05 551.99" opacity="0.2"/><polygon points="596.34 547.87 601.17 547.87 601.61 551.83 596.05 551.99 595.54 547.87 596.34 547.87" opacity="0.2"/><polygon points="592.29 521.57 598.25 521.07 597.92 517.98 591.91 518.48 592.29 521.57" opacity="0.2"/><path d="M591.91,513.35l.57,5.08,4.74-.39-.69-5.08a5,5,0,0,0-2.36-.2A8.62,8.62,0,0,0,591.91,513.35Z" opacity="0.2"/><polygon points="606.53 525.72 607.13 551.63 611.41 551.45 612.15 525.72 606.53 525.72" opacity="0.2"/><polygon points="607.27 520.74 606.53 525.72 612.15 525.72 611.41 520.74 607.27 520.74" fill="#ccc"/><polygon points="607.27 520.74 606.53 525.72 612.15 525.72 611.41 520.74 607.27 520.74" opacity="0.2"/><polygon points="607.05 547.87 611.51 547.87 611.41 551.45 607.13 551.63 607.05 547.87" opacity="0.2"/><path d="M616.43,522.71l-2,28.6,5.42-.26,3.84-28.73S618.6,520.54,616.43,522.71Z" opacity="0.2"/><polygon points="614.7 547.87 620.3 547.87 619.88 551.05 614.46 551.31 614.7 547.87" opacity="0.2"/><polygon points="125.08 600.38 129.72 613.86 737.2 613.86 740.69 600.38 125.08 600.38" fill="#ccc"/><polygon points="125.08 600.38 129.72 613.86 737.2 613.86 740.69 600.38 125.08 600.38" opacity="0.2"/><polygon points="293.29 600.38 156.59 600.38 154.7 594.7 295.24 594.7 293.29 600.38" fill="#77060c"/><path d="M158.76,588.4l1.38,6.3H291.72v-6.3s-41.37-21.22-64.61,1.78c0,0-14-20.29-31.71-13.2Z" fill="#ccc"/><path d="M226.79,590.29a30.9,30.9,0,0,0-11.9-15.71,16.39,16.39,0,0,0-13.64-2L162.8,583.81l-.2-.66,38.46-11.21A17,17,0,0,1,215.27,574a31.44,31.44,0,0,1,12.16,16Z" fill="#ccc"/><path d="M228.79,587l-.6-.34c6.27-10.9,18.13-15.74,34.29-14a85.73,85.73,0,0,1,22.68,6l-.28.63C284.47,579.08,243.63,561.23,228.79,587Z" fill="#ccc"/><ellipse cx="434.82" cy="136.69" rx="45.6" ry="53.52" fill="#f9b499"/><circle cx="479.34" cy="152.17" r="10.44" fill="#f9b499"/><circle cx="387.2" cy="152.17" r="10.44" fill="#f9b499"/><path d="M416.69,98.2s26.37,47.35,65.28,41.24c0,0,2.45-43.3-37.37-56,0,0-35.41-10.14-52.55,30.83,0,0-4.12,11.41-4.22,18.76C387.83,133,403.25,131.19,416.69,98.2Z" fill="#77060c"/><path d="M490.07,282s9.57-26.51,30.34-30.93C520.41,251.08,523.36,276.66,490.07,282Z" fill="#facc01"/><path d="M497.3,268.91s27.83,17.82,49.7,43.23l22.26-6.89S532,264.41,514.78,253C514.78,253,502.54,260,497.3,268.91Z" fill="#f9b499"/><path d="M305.62,300.85s16.41-5.42,26.2,3.37L326,310.47s-17.92-10.14-23.85-6.24Z" fill="#f7a78d"/><path d="M283.15,320c-1.33-2-1.77-4.75,1.77-7.81,0,0,35.16-21.47,41.07-1.67,0,0,11.15-1.48,12.22,5.61,0,0,2.85,8.28-12.22,4.14,0,0-10.83,5.83-36.8,3.23A8.24,8.24,0,0,1,283.15,320Z" fill="#f9b499"/><path d="M544.36,309.14S551,298.36,565.28,301l3,3.28L547,312.14Z" fill="#f7a78d"/><path d="M552.51,321.2s11.82,5.13,32.7,1.78a5,5,0,0,0,5.18-3.23,5.6,5.6,0,0,0-1.87-6.74c-5.31-3.94-17.71-11.39-32.85-8.75,0,0-6.9,1.38-8.67,7.88,0,0-7.29-2.36-7.29,5.32C539.71,317.46,539.32,324.36,552.51,321.2Z" fill="#f9b499"/><path d="M440.89,409.49,357.61,360.4s-17.27,14.84-21.42,39.3c0,0,47.71,26,109.76,31.61,0,0,51.12,7.69,59.68,5.62,0,0,7.92-7.53,9.89-11.76a.82.82,0,0,0-.47-1.09L462.2,404.57s-7.83-4.87-14.92,1.19C447.28,405.76,442.25,410.32,440.89,409.49Z" fill="#f9b499"/><path d="M582.1,552l.84,8.32s28.85.67,41.41-1.19l.85-8.32S592.45,552.63,582.1,552Z" fill="#77060c"/><path d="M347.26,600.38l-148-276.27s306.16,54.18,447.59,6.32l-126.25,270Z" fill="#ccc" opacity="0.16"/><path d="M336.19,497.6l11.07,102.78H520.58l8.06-102.78S433.93,492.56,336.19,497.6Z" fill="#77060c"/><circle cx="432.41" cy="547.87" r="11.61" opacity="0.2"/></svg>