 <!DOCTYPE svg PUBLIC "-//W3C//DTD SVG 1.1//EN" "http://www.w3.org/Graphics/SVG/1.1/DTD/svg11.dtd">

<svg id="b1c76e1d-c29c-45b6-8e90-06dfe7b1c642" data-name="Layer 1" xmlns="http://www.w3.org/2000/svg" width="465.76" height="482.89" viewBox="0 0 865.76 682.89">

<defs>

<style xmlns="http://www.w3.org/1999/xhtml">*, ::after, ::before { box-sizing: border-box; }
img, svg { vertical-align: middle; }
</style>

<style xmlns="http://www.w3.org/1999/xhtml">*, body, html { -webkit-font-smoothing: antialiased; }
img, svg { max-width: 100%; }
</style>

</defs>

<rect x="341.91" y="268.29" width="5.47" height="9.08" fill="none" stroke="#ed1c24" stroke-miterlimit="10" stroke-width="0.75"/>

<rect x="48.81" y="27.31" width="113.31" height="138.66" fill="#d1d3d4"/>

<rect x="58.5" y="39.98" width="95.05" height="114.06" fill="#fff"/>

<rect x="65.21" y="83.22" width="79.77" height="3.73" fill="#d1d3d4"/>

<rect x="65.21" y="89.93" width="79.77" height="3.73" fill="#d1d3d4"/>

<rect x="65.59" y="110.06" width="79.77" height="3.73" fill="#d1d3d4"/>

<rect x="65.59" y="116.77" width="79.77" height="3.73" fill="#d1d3d4"/>

<rect x="65.21" y="123.48" width="49.7" height="3.73" fill="#d1d3d4"/>

<rect x="65.21" y="96.64" width="79.77" height="3.73" fill="#d1d3d4"/>

<rect x="65.21" y="103.35" width="79.77" height="3.73" fill="#d1d3d4"/>

<rect x="78.63" y="64.33" width="53.68" height="6.21" fill="#d1d3d4"/>

<rect x="65.59" y="52.65" width="79.39" height="6.46" fill="#d1d3d4"/>

<circle cx="133.49" cy="138.57" r="8.39" fill="#d1d3d4"/>

<path d="M702.2,33.83a81.71,81.71,0,1,0,81.7,81.7A81.7,81.7,0,0,0,702.2,33.83Zm0,146.61a64.91,64.91,0,1,1,64.9-64.91A64.91,64.91,0,0,1,702.2,180.44Z" fill="#d1d3d4"/>

<rect x="685.41" y="98.6" width="41.44" height="2.15" transform="translate(441.92 762.06) rotate(-76.29)" fill="#d1d3d4"/>

<rect x="728.1" y="88.68" width="2.15" height="63.94" transform="translate(493.36 821.11) rotate(-80.79)" fill="#d1d3d4"/>

<circle cx="642.2" cy="116.08" r="2.73" fill="#d1d3d4"/>

<circle cx="701.59" cy="55.94" r="2.73" fill="#d1d3d4"/>

<circle cx="761.78" cy="116.08" r="2.73" fill="#d1d3d4"/>

<circle cx="701.59" cy="174.97" r="2.73" fill="#d1d3d4"/>

<path d="M541.12,629a13,13,0,0,0-11.28,6.56l-22.58-6L511.48,643h16.65a13.06,13.06,0,1,0,13-14Z" fill="#d1d3d4"/>

<path d="M338.87,629a13,13,0,0,1,11.28,6.56l22.58-6L368.51,643H351.86a13.06,13.06,0,1,1-13-14Z" fill="#d1d3d4"/>

<path d="M687.64,298.49a13.1,13.1,0,1,0,13.1,13.1A13.11,13.11,0,0,0,687.64,298.49Zm1.86,20.58a7.48,7.48,0,1,1,7.48-7.48A7.47,7.47,0,0,1,689.5,319.07Z" fill="#ccc"/>

<rect x="425.36" y="461.35" width="27.26" height="181.07" fill="#d1d3d4"/>

<rect x="332.07" y="438.44" width="213.89" height="27.83" rx="4.86" fill="#d1d3d4"/>

<path d="M372.35,257.16s15.41-11.32,39.66-17,57.48-5.72,92.92,17Z" fill="#ffe100" data-primary="true"/>

<path d="M421.9,257.16s-9.72-3.68-9.89-17c0,0,26.42-6.7,51.64-.5,0,0,3.12,12.75-7.92,17.5Z" fill="#f9b499"/>

<path d="M333.13,257.16H542.74a3.23,3.23,0,0,1,3.23,3.23v48.94a0,0,0,0,1,0,0H329.9a0,0,0,0,1,0,0V260.38A3.23,3.23,0,0,1,333.13,257.16Z" fill="#660000" data-secondary="true"/>

<path d="M333.13,257.16H542.74a3.23,3.23,0,0,1,3.23,3.23v48.94a0,0,0,0,1,0,0H329.9a0,0,0,0,1,0,0V260.38A3.23,3.23,0,0,1,333.13,257.16Z" opacity="0.2"/>

<rect x="422.59" y="214.15" width="30.69" height="26.6" fill="#f9b499"/>

<ellipse cx="344.32" cy="349.98" rx="27.62" ry="44.98" fill="#ffe100" data-primary="true"/>

<ellipse cx="532.55" cy="349.98" rx="27.62" ry="44.98" fill="#ffe100" data-primary="true"/>

<ellipse cx="438.9" cy="78.75" rx="37.75" ry="26.4" fill="#660000" data-secondary="true"/>

<path d="M418,56.75s53.57-5.5,49.06,35.8l3,1.06s14.94-12.71,0-29.72C470.11,63.89,451,43.53,418,56.75Z" fill="#231f20" opacity="0.2"/>

<rect x="122.68" y="384.38" width="694.27" height="5.32" fill="#ccc"/>

<rect x="122.68" y="384.38" width="694.27" height="5.32" opacity="0.2"/>

<path d="M351.89,399.93A168.57,168.57,0,0,0,357,425.75a166.74,166.74,0,0,0,7.43,20.95,11,11,0,0,0,3.89,5.81,10.83,10.83,0,0,0,6.61,2.25H500.45c5,0,7.85-3.36,10.58-8.34A112.65,112.65,0,0,0,518.25,429a147.45,147.45,0,0,0,6.73-28.8Z" fill="#660000" data-secondary="true"/>

<path d="M390.58,454.76s-17.8-20.21-12.48-38.62h22.44c10.88,0,21.47,4.52,28.34,13,4.89,6,8.32,14.39,6.31,25.66Z" opacity="0.2"/>

<path d="M485.67,454.76s17.8-20.21,12.48-38.62H475.72c-10.88,0-21.47,4.52-28.34,13-4.9,6-8.32,14.39-6.31,25.66Z" opacity="0.2"/>

<path d="M377.11,624.32l15-172.57a20.33,20.33,0,0,1,20.65-18.56l3.58.07a22.72,22.72,0,0,1,22.21,24.54L425.06,626.16Z" fill="#660000" data-secondary="true"/>

<path d="M452.22,628.11l-13-172.73a20.32,20.32,0,0,1,17.4-21.64l3.54-.51a22.74,22.74,0,0,1,25.88,20.65l13.75,168.34Z" fill="#660000" data-secondary="true"/>

<path d="M375.56,612.42h49.74a13.34,13.34,0,0,1,13.34,13.34v29.37a0,0,0,0,1,0,0H362.22a0,0,0,0,1,0,0V625.76a13.34,13.34,0,0,1,13.34-13.34Z" fill="#ffe100" data-primary="true"/>

<path d="M375.56,612.42h49.74a13.34,13.34,0,0,1,13.34,13.34v29.37a0,0,0,0,1,0,0H362.22a0,0,0,0,1,0,0V625.76a13.34,13.34,0,0,1,13.34-13.34Z" fill="#fff" opacity="0.38"/>

<path d="M452.55,612.42h49.74a13.34,13.34,0,0,1,13.34,13.34v29.37a0,0,0,0,1,0,0H439.21a0,0,0,0,1,0,0V625.76A13.34,13.34,0,0,1,452.55,612.42Z" fill="#ffe100" data-primary="true"/>

<ellipse cx="375.46" cy="608.82" rx="7.83" ry="26.07" transform="translate(-240.58 245.33) rotate(-27.8)" fill="#ffe100" data-primary="true"/>

<ellipse cx="375.46" cy="608.82" rx="7.83" ry="26.07" transform="translate(-240.58 245.33) rotate(-27.8)" fill="#fff" opacity="0.38"/>

<ellipse cx="377.07" cy="611.88" rx="4.51" ry="18.47" transform="translate(-241.82 246.43) rotate(-27.8)" fill="#fff"/>

<ellipse cx="425.36" cy="608.82" rx="26.07" ry="7.83" transform="translate(-304.94 743.94) rotate(-65.54)" fill="#ffe100" data-primary="true"/>

<ellipse cx="425.36" cy="608.82" rx="26.07" ry="7.83" transform="translate(-304.94 743.94) rotate(-65.54)" fill="#fff" opacity="0.38"/>

<ellipse cx="423.93" cy="611.96" rx="18.47" ry="4.51" transform="translate(-308.64 744.48) rotate(-65.54)" fill="#fff"/>

<polygon points="677.7 399.93 655.95 655.12 661.07 655.12 700.74 399.93 677.7 399.93" fill="#ccc"/>

<polygon points="686.02 427.34 658.2 655.12 655.95 655.12 677.7 399.93 689.5 399.93 686.02 427.34" opacity="0.2"/>

<polygon points="693.19 401.1 756.66 655.54 761.51 653.9 715 393.69 693.19 401.1" fill="#ccc"/>

<polygon points="710.1 425.01 758.8 654.82 756.66 655.54 693.19 401.1 704.37 397.31 710.1 425.01" opacity="0.2"/>

<polygon points="197.51 399.97 175.76 655.16 180.88 655.16 220.55 399.97 197.51 399.97" fill="#ccc"/>

<polygon points="205.83 427.39 178.01 655.16 175.76 655.16 197.51 399.97 209.32 399.97 205.83 427.39" opacity="0.2"/>

<polygon points="213 401.15 276.48 655.59 281.32 653.94 234.81 393.74 213 401.15" fill="#ccc"/>

<polygon points="229.91 425.05 278.61 654.86 276.48 655.59 213 401.15 224.18 397.35 229.91 425.05" opacity="0.2"/>

<rect x="642.88" y="366.41" width="118.63" height="17.96" fill="#660000" data-secondary="true"/>

<rect x="642.88" y="378.33" width="118.63" height="6.05" opacity="0.2"/>

<rect x="652.06" y="354.96" width="96.16" height="11.45" fill="#660000" data-secondary="true"/>

<rect x="652.06" y="354.96" width="96.16" height="11.45" opacity="0.2"/>

<rect x="664.13" y="348.41" width="97.38" height="6.55" fill="#660000" data-secondary="true"/>

<rect x="661.68" y="340.43" width="98.21" height="7.98" fill="#660000" data-secondary="true"/>

<rect x="661.68" y="340.43" width="98.21" height="7.98" opacity="0.2"/>

<rect x="689.5" y="286.01" width="43.78" height="54.42" fill="#ccc"/>

<rect x="122.68" y="389.69" width="694.27" height="13.4" fill="#ccc"/>

<path d="M331.92,261.9h212a2,2,0,0,1,2,2V384.38a0,0,0,0,1,0,0H329.9a0,0,0,0,1,0,0V263.92A2,2,0,0,1,331.92,261.9Z" fill="#660000" data-secondary="true"/>

<path d="M452.55,612.42h49.74a13.34,13.34,0,0,1,13.34,13.34v29.37a0,0,0,0,1,0,0H439.21a0,0,0,0,1,0,0V625.76A13.34,13.34,0,0,1,452.55,612.42Z" fill="#fff" opacity="0.38"/>

<ellipse cx="502.52" cy="608.82" rx="26.07" ry="7.83" transform="translate(-259.72 814.18) rotate(-65.54)" fill="#ffe100" data-primary="true"/>

<ellipse cx="502.52" cy="608.82" rx="26.07" ry="7.83" transform="translate(-259.72 814.18) rotate(-65.54)" fill="#fff" opacity="0.38"/>

<ellipse cx="501.09" cy="611.96" rx="18.47" ry="4.51" transform="translate(-263.42 814.72) rotate(-65.54)" fill="#fff"/>

<ellipse cx="452.62" cy="608.82" rx="7.83" ry="26.07" transform="translate(-231.68 281.31) rotate(-27.8)" fill="#ffe100" data-primary="true"/>

<ellipse cx="452.62" cy="608.82" rx="7.83" ry="26.07" transform="translate(-231.68 281.31) rotate(-27.8)" fill="#fff" opacity="0.38"/>

<ellipse cx="454.23" cy="611.88" rx="4.51" ry="18.47" transform="translate(-232.92 282.41) rotate(-27.8)" fill="#fff"/>

<path d="M689.5,286H697s-1.55,17.39,3,29.48a16,16,0,0,0,15,10.23h18.31v14.71H689.5Z" opacity="0.2"/>

<path d="M129.37,363.33s-5.53-83.12,85.2-62.62L268.77,330l2.61,35.09h13a10.5,10.5,0,0,1,10.5,10.5h0a10.5,10.5,0,0,1-10.5,10.5H120.79s-14.53,26.47,19,28.7c0,0-13.42,16,1.49,25.72,0,0-49.7.75-47.71-42.49C93.58,398,96.56,366.44,129.37,363.33Z" fill="#660000" data-secondary="true"/>

<ellipse cx="141.14" cy="427.37" rx="10.66" ry="13.13" fill="#3f3d56"/>

<ellipse cx="141.14" cy="427.37" rx="10.66" ry="13.13" opacity="0.2"/>

<path d="M141.73,318.38s5.53,27.06,18.2,28.92a4.16,4.16,0,0,0,4-1.35,6.36,6.36,0,0,0,.8-7.38c-3.41-6.35-11.33-22.48-10-32.55C154.82,306,146.12,311.28,141.73,318.38Z" opacity="0.2"/>

<path d="M160.79,302.79S162,322,174,334.2a5.94,5.94,0,0,0,7.14.92h0a5.9,5.9,0,0,0,2.29-7.87c-3.59-6.76-9.45-19.12-9.94-28.46A39.48,39.48,0,0,0,160.79,302.79Z" opacity="0.2"/>

<path d="M182.66,297.63s3.68,19.89,12.07,28.66a6.09,6.09,0,0,0,6.75,1.33h0a6.14,6.14,0,0,0,2.84-8.93c-3.8-6-8.8-15.22-8.22-20.89A94,94,0,0,0,182.66,297.63Z" opacity="0.2"/>

<ellipse cx="259.69" cy="326.87" rx="43.87" ry="38.2" fill="#660000" data-secondary="true"/>

<ellipse cx="259.69" cy="326.87" rx="43.87" ry="38.2" opacity="0.2"/>

<path d="M303.51,325.14,305.64,280a8.85,8.85,0,0,0-4.63-8.21h0a8.86,8.86,0,0,0-10.63,1.69l-16.46,17.32S302,298.41,303.51,325.14Z" fill="#660000" data-secondary="true"/>

<path d="M284.19,294.93s5.47-9.76,9.14-10.63a1.46,1.46,0,0,1,1.59.83c.9,1.82,2.71,7.32,1.59,20.89C296.51,306,289.87,297.42,284.19,294.93Z" fill="#fff"/>

<path d="M245.37,290.77s-10-11.73-17.53-18.42c-4.27-3.81-11.32-1.84-12.69,3.72a22.83,22.83,0,0,0-.58,5.41l2,38.37S219.84,299.28,245.37,290.77Z" fill="#660000" data-secondary="true"/>

<path d="M223.14,306s.13-15.88,1.6-20.52a1.41,1.41,0,0,1,1.95-.84,17,17,0,0,1,9,10.45S226.7,300.42,223.14,306Z" fill="#fff"/>

<path d="M244.62,334.72h-1.83a7.86,7.86,0,0,1-7.85-7.85h1.44a6.43,6.43,0,0,0,6.41,6.42h1.83a6.43,6.43,0,0,0,6.42-6.42h1.43A7.86,7.86,0,0,1,244.62,334.72Z" fill="#fff"/>

<path d="M280.2,334.72h-1.83a7.86,7.86,0,0,1-7.85-7.85H272a6.43,6.43,0,0,0,6.42,6.42h1.83a6.43,6.43,0,0,0,6.42-6.42h1.43A7.86,7.86,0,0,1,280.2,334.72Z" fill="#fff"/>

<ellipse cx="261.81" cy="341.27" rx="6.03" ry="2.01" opacity="0.2"/>

<ellipse cx="400.3" cy="642.42" rx="5.22" ry="3.07" fill="#ffe100" data-primary="true"/>

<ellipse cx="476.62" cy="642.42" rx="5.22" ry="3.07" fill="#ffe100" data-primary="true"/>

<path d="M422.59,223.12v-5.31h26.6S447.57,222.7,422.59,223.12Z" fill="#f4a48e"/>

<path d="M382.38,167.71s-22.56-25.64.3-54.42A66.47,66.47,0,0,1,417,90.71c15.53-4.28,38.54-5.6,65.76,8.5,0,0,36.37,19,22.17,73.35,0,0-9.59,37.44-27.7,56.47,0,0,20.65-60.84-3.37-86.55,0,0,3.27,8,2.45,11.52,0,0-13.5-24.92-24.14-28.39,0,0,5.11,5.72,5.93,10.84,0,0-18.54-20.16-39.86-17.44,0,0-10.12,2.18-20.53,13.88a62.16,62.16,0,0,0-14.06,28.83C383.29,163.45,382.87,165.44,382.38,167.71Z" fill="#660000" data-secondary="true"/>

<ellipse cx="437.93" cy="167.71" rx="54.83" ry="52.17" fill="#f9b499"/>

<ellipse cx="382.38" cy="166.48" rx="8.39" ry="12.48" fill="#f9b499"/>

<path d="M382.39,167.65S371.8,156.87,372.6,137c0,0,.42-16.54,17.8-31.89l3.87,3.88S368.66,125.82,382.39,167.65Z" fill="#231f20" opacity="0.2"/>

<path d="M476.16,153.68c-12.89-24.39-23.94-28.23-23.94-28.23a32.56,32.56,0,0,1,5.84,11c-14.11-15-30.85-17.24-30.85-17.24-10.28-2.76-19.34,4.45-19.34,4.45l-11.35-12.53-6.12-5.93s28.83-30.49,79.71-11.54c0,0,29.73,7.44,36.32,39.3,0,0,5.8,20.63-5.1,51.37,0,0-10.8,32.29-24.1,44.75,0,0,9.11-26.09,8.08-54.73,0,0-.2-20.05-11.66-31.92C473.65,142.38,476.77,148.77,476.16,153.68Z" fill="#231f20" opacity="0.2"/>

</svg>